<?xml version="1.0" encoding="utf-8"?>
<!-- Generator: Adobe Illustrator 25.4.1, SVG Export Plug-In . SVG Version: 6.00 Build 0)  -->
<svg version="1.1" id="Ebene_1" xmlns="http://www.w3.org/2000/svg" xmlns:xlink="http://www.w3.org/1999/xlink" x="0px" y="0px"
	 viewBox="0 0 1705 1705" style="enable-background:new 0 0 1705 1705;" xml:space="preserve">
<style type="text/css">
	.st0{fill:none;}
	.st1{fill:#FFFFFF;}
</style>
<circle class="st0" cx="852.5" cy="852.5" r="850"/>
<g>
	<path class="st1" d="M253.5,445.9l366.5,407c16.6,11.4,38.2,12.5,55.9,2.9L869,681.9c11.3-14.6,14.1-46-8-70.5s-53-24.4-68.7-14.7
		L676.4,701c-10.8,5.3-20.1,4.8-30.3-1.6l-62.3-69.3c-5.3-10.8-4.8-20.1,1.6-30.3l115.8-104.3c11.3-14.6,13.5-46.6-10.2-73
		c-23.2-25.7-55.2-26.8-70.9-17.2L504.2,509.8c-11.4,5.8-20.1,4.8-30.3-1.6l-65.1-72.3c-5.3-10.8-4.8-20.1,1.6-30.3l115.8-104.3
		c11.3-14.6,14.1-46-8-70.5s-53-24.4-68.7-14.7L256.4,390C245.1,406.6,243.9,428.2,253.5,445.9"/>
	<path class="st1" d="M1473.1,516.4L979.9,623.6c-36.3,7.9-57.3,39.4-49.6,74.9s39.9,55.5,76.2,47.6l226.5-49.2l-214.5,197.6
		c-24.7,22.2-48.2,57.7-22.9,92.8c25.5,35.8,61.8,27.9,90.5,0.6l192.1-184.3l248.4,87c37.4,13,73.7,5.1,82-38.1
		c8.5-42.4-27.6-64.9-59.3-74.9l-274.4-89.8l224.9-48.8c36.3-7.9,57.3-39.4,49.6-74.9S1509.4,508.6,1473.1,516.4"/>
	<path class="st1" d="M753.1,1350.9l-31.1,95.7c-5.4,8.7-13.7,12.9-24.9,12.7l-73.7-24c-9.2-6.5-37-35.5-22.3-80.9
		c15.3-47.1,53.8-53.6,64.3-53.7l75.3,24.5C750.8,1331.1,754,1340,753.1,1350.9 M831.5,1109.3l-30.1,92.6
		c-5.7,9.4-14.8,13.4-26.8,13l-85.4-27.8c-9.2-6.5-40.9-31.5-24.6-81.7c16.6-51,55.9-52.1,67.9-51.6l85.5,27.8
		C829,1087.7,832.8,1097.6,831.5,1109.3 M811.6,1565.9l163.1-502c2.6-29.5-6.4-47.1-31.8-62.3l-203.1-66
		c-64.2-10.5-152.3,39-184.7,138.6c-15.7,47.9-9.5,100.3,16.7,143.3c-37.9,20.6-67.1,64.9-80.8,107.3
		c-31.3,96.4,10.8,177.8,71.6,212.3l186.7,60.7C778.7,1600.3,796.4,1591.3,811.6,1565.9"/>
</g>
</svg>
