<?xml version="1.0" standalone="no"?>
<!DOCTYPE svg PUBLIC "-//W3C//DTD SVG 20010904//EN"
 "http://www.w3.org/TR/2001/REC-SVG-20010904/DTD/svg10.dtd">
<svg version="1.0" xmlns="http://www.w3.org/2000/svg"
 width="700.000000pt" height="700.000000pt" viewBox="0 0 700.000000 700.000000"
 preserveAspectRatio="xMidYMid meet">
<metadata>
Created by potrace 1.14, written by Peter Selinger 2001-2017
</metadata>
<g transform="translate(0.000000,700.000000) scale(0.100000,-0.100000)"
fill="#000000" stroke="none">
<path d="M1888 6130 c-33 -10 -57 -28 -168 -129 -47 -43 -112 -102 -145 -131
-33 -30 -65 -59 -71 -64 -6 -6 -112 -102 -236 -214 -124 -112 -229 -213 -233
-225 -44 -136 -36 -153 185 -399 101 -112 188 -208 194 -213 6 -6 45 -48 86
-95 41 -47 77 -87 80 -90 3 -3 43 -48 90 -100 47 -52 90 -100 95 -106 115
-126 182 -200 226 -249 73 -82 109 -123 139 -155 23 -26 44 -48 144 -160 23
-25 77 -86 122 -135 45 -50 96 -107 114 -128 40 -46 77 -67 134 -73 41 -5 126
11 136 25 3 4 32 31 65 60 33 30 76 68 95 85 19 18 109 99 200 181 91 81 188
168 215 194 28 25 89 80 134 121 92 82 113 118 113 192 -2 132 -118 250 -247
251 -62 0 -112 -26 -191 -100 -27 -27 -90 -84 -139 -128 -191 -172 -210 -189
-215 -195 -29 -36 -101 -51 -140 -30 -31 17 -271 288 -281 320 -14 39 4 93 39
121 15 11 45 37 67 58 22 20 85 77 140 126 55 49 120 108 145 131 25 23 59 55
77 70 63 58 72 153 22 252 -51 102 -132 155 -239 156 -71 1 -81 -4 -158 -75
-26 -24 -87 -80 -137 -124 -49 -44 -97 -87 -105 -95 -54 -55 -184 -161 -204
-166 -29 -7 -92 12 -103 31 -5 7 -30 37 -58 67 -211 231 -217 240 -209 293 4
31 65 94 208 220 38 33 83 74 101 90 17 17 66 61 109 99 88 78 106 108 110
175 6 95 -55 195 -144 241 -43 22 -123 32 -162 20z"/>
<path d="M6058 4885 c-2 -2 -15 -6 -28 -9 -14 -3 -86 -18 -160 -35 -133 -29
-156 -34 -215 -46 -16 -3 -97 -21 -180 -40 -130 -29 -264 -58 -330 -70 -11 -3
-38 -9 -60 -14 -43 -11 -393 -87 -435 -95 -14 -2 -65 -13 -115 -25 -73 -17
-243 -54 -445 -97 -93 -20 -118 -27 -150 -46 -145 -88 -169 -283 -50 -405 60
-61 151 -85 250 -64 30 6 64 13 75 15 63 13 406 88 440 96 48 12 208 47 250
54 17 4 56 12 88 20 31 7 57 10 57 6 0 -4 -13 -18 -29 -31 -16 -13 -77 -69
-136 -124 -59 -55 -116 -107 -126 -116 -21 -18 -179 -164 -238 -219 -21 -19
-77 -71 -126 -115 -181 -163 -301 -289 -325 -339 -44 -93 -28 -193 42 -265
112 -118 227 -94 413 86 127 122 488 468 529 508 18 17 68 65 112 108 l80 78
205 -72 c112 -39 254 -88 314 -109 61 -21 189 -66 285 -100 238 -85 277 -96
336 -99 117 -6 206 74 221 197 11 100 -42 189 -148 246 -28 16 -191 74 -362
130 -172 56 -434 142 -584 191 -150 49 -271 90 -270 92 3 2 818 180 867 189
170 31 264 134 255 279 -9 137 -105 232 -245 240 -32 2 -60 2 -62 0z"/>
<path d="M2910 3162 c-110 -16 -246 -74 -330 -140 -193 -152 -324 -394 -333
-615 -6 -126 28 -281 81 -371 l18 -31 -60 -45 c-83 -62 -158 -157 -216 -275
-157 -317 -119 -660 97 -881 100 -102 115 -108 628 -271 44 -14 89 -29 100
-34 64 -26 193 -59 233 -59 63 1 120 28 165 80 31 37 49 84 137 354 56 171
134 412 175 536 40 124 121 374 180 555 59 182 132 404 162 495 59 180 66 237
37 310 -30 74 -84 110 -250 163 -82 26 -273 88 -424 137 -258 85 -333 102
-400 92z m291 -551 c185 -61 210 -78 212 -137 1 -37 -119 -409 -138 -427 -7
-8 -28 -20 -45 -27 -30 -12 -41 -10 -134 20 -55 19 -104 34 -108 35 -3 0 -10
3 -14 8 -4 4 -15 7 -25 7 -42 0 -130 43 -166 81 -71 75 -90 176 -53 289 38
114 106 183 203 205 64 14 59 15 268 -54z m-311 -1002 c168 -55 200 -76 200
-131 0 -17 -28 -117 -61 -222 -67 -206 -90 -246 -147 -246 -46 0 -321 96 -348
121 -14 13 -38 51 -54 84 -39 80 -37 170 5 263 43 96 147 178 230 181 11 1 90
-22 175 -50z"/>
</g>
</svg>
